<?xml version="1.0" standalone="no"?>
<svg version="1.0" xmlns="http://www.w3.org/2000/svg"
 width="512.000000pt" height="512.000000pt" viewBox="0 0 512.000000 512.000000"
 preserveAspectRatio="xMidYMid meet">

<g transform="translate(0.000000,512.000000) scale(0.100000,-0.100000)"
fill="gray" stroke="none">
<path d="M295 4986 c-103 -33 -202 -113 -245 -197 -52 -102 -50 7 -50 -2229 0
-2236 -2 -2127 50 -2229 32 -64 113 -139 187 -174 l68 -32 2255 0 2255 0 66
31 c120 57 205 166 229 294 14 73 14 4147 0 4220 -24 129 -108 236 -227 293
l-68 32 -2240 2 c-1790 1 -2248 -1 -2280 -11z m2893 -851 c76 -16 347 -92 368
-104 7 -4 -9 -80 -50 -233 -34 -125 -64 -230 -68 -233 -3 -4 -35 9 -70 28
-103 57 -158 70 -259 65 -69 -4 -101 -11 -144 -32 -96 -47 -124 -130 -125
-358 l0 -108 275 0 c214 0 275 -3 275 -12 -1 -7 -27 -121 -58 -253 l-58 -240
-217 -3 -217 -2 0 -840 0 -840 -345 0 -345 0 0 840 0 840 -162 2 -163 3 -3
253 -2 252 164 0 163 0 6 213 c4 169 10 227 26 286 32 118 77 197 161 282 109
110 222 161 435 194 115 19 320 18 413 0z"/>
</g>
</svg>
