<?xml version="1.0" standalone="no"?>
<!DOCTYPE svg>
<svg version="1.0" xmlns="http://www.w3.org/2000/svg"
 width="512.000000pt" height="512.000000pt" viewBox="0 0 512.000000 512.000000"
 preserveAspectRatio="xMidYMid meet">

<g transform="translate(0.000000,512.000000) scale(0.100000,-0.100000)"
fill="gray" stroke="none">
<path d="M1015 4953 c-135 -19 -325 -96 -439 -177 -78 -56 -176 -154 -232
-232 -56 -79 -126 -226 -155 -329 l-23 -80 -4 -1525 c-2 -1125 0 -1545 8
-1600 17 -106 55 -222 102 -310 137 -257 354 -428 643 -507 l100 -28 1465 -3
c1525 -3 1605 -2 1750 39 325 90 599 364 689 688 41 147 42 225 39 1751 l-3
1465 -28 100 c-29 108 -85 234 -142 319 -111 168 -304 316 -495 381 -168 57
-101 55 -1739 54 -828 -1 -1519 -4 -1536 -6z m3101 -742 c78 -36 118 -120 100
-215 -14 -71 -97 -136 -176 -136 -159 0 -244 185 -140 304 58 66 137 83 216
47z m-1401 -211 c616 -69 1114 -517 1257 -1130 14 -60 21 -137 25 -265 5 -156
2 -196 -16 -300 -56 -312 -183 -558 -395 -771 -213 -212 -459 -339 -771 -395
-104 -18 -144 -21 -300 -16 -128 4 -205 11 -265 25 -787 183 -1269 935 -1106
1723 41 196 121 384 232 545 62 89 239 266 328 328 291 201 661 295 1011 256z"/>
<path d="M2421 3719 c-469 -58 -865 -400 -986 -850 -168 -628 196 -1260 825
-1432 161 -44 407 -48 565 -8 319 79 571 268 743 555 146 243 192 595 115 876
-117 430 -461 755 -894 844 -97 20 -273 27 -368 15z"/>
</g>
</svg>
